<?xml version="1.0" encoding="UTF-8" standalone="no"?>
<!DOCTYPE svg PUBLIC "-//W3C//DTD SVG 1.1//EN"
 "http://www.w3.org/Graphics/SVG/1.1/DTD/svg11.dtd">
<!-- Generated by graphviz version 7.0.0 (20221023.0053)
 -->
<!-- Title: Metadata Pages: 1 -->
<svg width="877pt" height="530pt"
 viewBox="0.00 0.00 877.00 530.00" xmlns="http://www.w3.org/2000/svg" xmlns:xlink="http://www.w3.org/1999/xlink">
<g id="graph0" class="graph" transform="scale(1 1) rotate(0) translate(4 526)">
<title>Metadata</title>
<polygon fill="white" stroke="none" points="-4,4 -4,-526 873,-526 873,4 -4,4"/>
<!-- users -->
<g id="node1" class="node">
<title>users</title>
<path fill="#ffec8b" stroke="black" d="M233.5,-422.5C233.5,-422.5 340.5,-422.5 340.5,-422.5 346.5,-422.5 352.5,-428.5 352.5,-434.5 352.5,-434.5 352.5,-509.5 352.5,-509.5 352.5,-515.5 346.5,-521.5 340.5,-521.5 340.5,-521.5 233.5,-521.5 233.5,-521.5 227.5,-521.5 221.5,-515.5 221.5,-509.5 221.5,-509.5 221.5,-434.5 221.5,-434.5 221.5,-428.5 227.5,-422.5 233.5,-422.5"/>
<text text-anchor="middle" x="287" y="-506.3" font-family="Times,serif" font-size="14.00">users</text>
<polyline fill="none" stroke="black" points="221.5,-498.5 352.5,-498.5"/>
<text text-anchor="start" x="229.5" y="-483.3" font-family="Times,serif" font-size="14.00">user_id : id &#45; integer</text>
<text text-anchor="start" x="229.5" y="-468.3" font-family="Times,serif" font-size="14.00">country : categorical</text>
<text text-anchor="start" x="229.5" y="-453.3" font-family="Times,serif" font-size="14.00">birthday : datetime</text>
<polyline fill="none" stroke="black" points="221.5,-445.5 352.5,-445.5"/>
<text text-anchor="start" x="229.5" y="-430.3" font-family="Times,serif" font-size="14.00">Primary key: user_id</text>
</g>
<!-- sessions -->
<g id="node3" class="node">
<title>sessions</title>
<path fill="#ffec8b" stroke="black" d="M12,-226.5C12,-226.5 164,-226.5 164,-226.5 170,-226.5 176,-232.5 176,-238.5 176,-238.5 176,-358.5 176,-358.5 176,-364.5 170,-370.5 164,-370.5 164,-370.5 12,-370.5 12,-370.5 6,-370.5 0,-364.5 0,-358.5 0,-358.5 0,-238.5 0,-238.5 0,-232.5 6,-226.5 12,-226.5"/>
<text text-anchor="middle" x="88" y="-355.3" font-family="Times,serif" font-size="14.00">sessions</text>
<polyline fill="none" stroke="black" points="0,-347.5 176,-347.5"/>
<text text-anchor="start" x="8" y="-332.3" font-family="Times,serif" font-size="14.00">session_id : id &#45; integer</text>
<text text-anchor="start" x="8" y="-317.3" font-family="Times,serif" font-size="14.00">user_id : id &#45; integer</text>
<text text-anchor="start" x="8" y="-302.3" font-family="Times,serif" font-size="14.00">device : categorical</text>
<text text-anchor="start" x="8" y="-287.3" font-family="Times,serif" font-size="14.00">os : categorical</text>
<text text-anchor="start" x="8" y="-272.3" font-family="Times,serif" font-size="14.00">minutes : numerical &#45; integer</text>
<polyline fill="none" stroke="black" points="0,-264.5 176,-264.5"/>
<text text-anchor="start" x="8" y="-249.3" font-family="Times,serif" font-size="14.00">Primary key: session_id</text>
<text text-anchor="start" x="8" y="-234.3" font-family="Times,serif" font-size="14.00">Foreign key (users): user_id</text>
</g>
<!-- users&#45;&gt;sessions -->
<g id="edge1" class="edge">
<title>users&#45;&gt;sessions</title>
<path fill="none" stroke="black" d="M221.53,-466.46C178.06,-459.71 123.72,-443.34 94,-404 88.72,-397.02 85.22,-388.96 83.01,-380.49"/>
<polygon fill="none" stroke="black" points="84.51,-370.19 83.05,-380.68 77.65,-371.57 84.51,-370.19"/>
<text text-anchor="middle" x="187.5" y="-392.8" font-family="Times,serif" font-size="14.00"> &#160;&#160;sessions.user_id &gt; users.user_id</text>
</g>
<!-- nps -->
<g id="node5" class="node">
<title>nps</title>
<path fill="#ffec8b" stroke="black" d="M212.5,-234C212.5,-234 349.5,-234 349.5,-234 355.5,-234 361.5,-240 361.5,-246 361.5,-246 361.5,-351 361.5,-351 361.5,-357 355.5,-363 349.5,-363 349.5,-363 212.5,-363 212.5,-363 206.5,-363 200.5,-357 200.5,-351 200.5,-351 200.5,-246 200.5,-246 200.5,-240 206.5,-234 212.5,-234"/>
<text text-anchor="middle" x="281" y="-347.8" font-family="Times,serif" font-size="14.00">nps</text>
<polyline fill="none" stroke="black" points="200.5,-340 361.5,-340"/>
<text text-anchor="start" x="208.5" y="-324.8" font-family="Times,serif" font-size="14.00">timestamp : datetime</text>
<text text-anchor="start" x="208.5" y="-309.8" font-family="Times,serif" font-size="14.00">nps_id : id &#45; integer</text>
<text text-anchor="start" x="208.5" y="-294.8" font-family="Times,serif" font-size="14.00">user : id &#45; integer</text>
<text text-anchor="start" x="208.5" y="-279.8" font-family="Times,serif" font-size="14.00">score : numerical &#45; integer</text>
<polyline fill="none" stroke="black" points="200.5,-272 361.5,-272"/>
<text text-anchor="start" x="208.5" y="-256.8" font-family="Times,serif" font-size="14.00">Primary key: nps_id</text>
<text text-anchor="start" x="208.5" y="-241.8" font-family="Times,serif" font-size="14.00">Foreign key (users): user</text>
</g>
<!-- users&#45;&gt;nps -->
<g id="edge4" class="edge">
<title>users&#45;&gt;nps</title>
<path fill="none" stroke="black" d="M285.31,-422.77C284.77,-407.35 284.16,-389.9 283.57,-373.1"/>
<polygon fill="none" stroke="black" points="286.73,-363.12 283.58,-373.23 279.73,-363.36 286.73,-363.12"/>
<text text-anchor="middle" x="357" y="-392.8" font-family="Times,serif" font-size="14.00"> &#160;&#160;nps.user &gt; users.user_id</text>
</g>
<!-- profiles -->
<g id="node6" class="node">
<title>profiles</title>
<path fill="#ffec8b" stroke="black" d="M391.5,-234C391.5,-234 632.5,-234 632.5,-234 638.5,-234 644.5,-240 644.5,-246 644.5,-246 644.5,-351 644.5,-351 644.5,-357 638.5,-363 632.5,-363 632.5,-363 391.5,-363 391.5,-363 385.5,-363 379.5,-357 379.5,-351 379.5,-351 379.5,-246 379.5,-246 379.5,-240 385.5,-234 391.5,-234"/>
<text text-anchor="middle" x="512" y="-347.8" font-family="Times,serif" font-size="14.00">profiles</text>
<polyline fill="none" stroke="black" points="379.5,-340 644.5,-340"/>
<text text-anchor="start" x="387.5" y="-324.8" font-family="Times,serif" font-size="14.00">user : id &#45; integer</text>
<text text-anchor="start" x="387.5" y="-309.8" font-family="Times,serif" font-size="14.00">marketing_dimension_1 : numerical &#45; integer</text>
<text text-anchor="start" x="387.5" y="-294.8" font-family="Times,serif" font-size="14.00">marketing_dimension_2 : numerical &#45; integer</text>
<text text-anchor="start" x="387.5" y="-279.8" font-family="Times,serif" font-size="14.00">marketing_dimension_3 : numerical &#45; integer</text>
<text text-anchor="start" x="387.5" y="-264.8" font-family="Times,serif" font-size="14.00">marketing_dimension_4 : numerical &#45; integer</text>
<polyline fill="none" stroke="black" points="379.5,-257 644.5,-257"/>
<text text-anchor="start" x="387.5" y="-241.8" font-family="Times,serif" font-size="14.00">Foreign key (users): user</text>
</g>
<!-- users&#45;&gt;profiles -->
<g id="edge5" class="edge">
<title>users&#45;&gt;profiles</title>
<path fill="none" stroke="black" d="M352.33,-449.08C379.04,-438.15 409.19,-423.13 433,-404 444.85,-394.48 455.9,-382.8 465.76,-370.74"/>
<polygon fill="none" stroke="black" points="474.5,-365.35 465.54,-371.02 469.01,-361.01 474.5,-365.35"/>
<text text-anchor="middle" x="531" y="-392.8" font-family="Times,serif" font-size="14.00"> &#160;&#160;profiles.user &gt; users.user_id</text>
</g>
<!-- products -->
<g id="node2" class="node">
<title>products</title>
<path fill="#ffec8b" stroke="black" d="M675,-256.5C675,-256.5 845,-256.5 845,-256.5 851,-256.5 857,-262.5 857,-268.5 857,-268.5 857,-328.5 857,-328.5 857,-334.5 851,-340.5 845,-340.5 845,-340.5 675,-340.5 675,-340.5 669,-340.5 663,-334.5 663,-328.5 663,-328.5 663,-268.5 663,-268.5 663,-262.5 669,-256.5 675,-256.5"/>
<text text-anchor="middle" x="760" y="-325.3" font-family="Times,serif" font-size="14.00">products</text>
<polyline fill="none" stroke="black" points="663,-317.5 857,-317.5"/>
<text text-anchor="start" x="671" y="-302.3" font-family="Times,serif" font-size="14.00">product_id : id &#45; integer</text>
<text text-anchor="start" x="671" y="-287.3" font-family="Times,serif" font-size="14.00">product_price : numerical &#45; float</text>
<polyline fill="none" stroke="black" points="663,-279.5 857,-279.5"/>
<text text-anchor="start" x="671" y="-264.3" font-family="Times,serif" font-size="14.00">Primary key: product_id</text>
</g>
<!-- transactions -->
<g id="node4" class="node">
<title>transactions</title>
<path fill="#ffec8b" stroke="black" d="M334.5,-0.5C334.5,-0.5 513.5,-0.5 513.5,-0.5 519.5,-0.5 525.5,-6.5 525.5,-12.5 525.5,-12.5 525.5,-162.5 525.5,-162.5 525.5,-168.5 519.5,-174.5 513.5,-174.5 513.5,-174.5 334.5,-174.5 334.5,-174.5 328.5,-174.5 322.5,-168.5 322.5,-162.5 322.5,-162.5 322.5,-12.5 322.5,-12.5 322.5,-6.5 328.5,-0.5 334.5,-0.5"/>
<text text-anchor="middle" x="424" y="-159.3" font-family="Times,serif" font-size="14.00">transactions</text>
<polyline fill="none" stroke="black" points="322.5,-151.5 525.5,-151.5"/>
<text text-anchor="start" x="330.5" y="-136.3" font-family="Times,serif" font-size="14.00">timestamp : datetime</text>
<text text-anchor="start" x="330.5" y="-121.3" font-family="Times,serif" font-size="14.00">transaction_id : id &#45; integer</text>
<text text-anchor="start" x="330.5" y="-106.3" font-family="Times,serif" font-size="14.00">session_id : id &#45; integer</text>
<text text-anchor="start" x="330.5" y="-91.3" font-family="Times,serif" font-size="14.00">product : id &#45; integer</text>
<text text-anchor="start" x="330.5" y="-76.3" font-family="Times,serif" font-size="14.00">number : numerical &#45; integer</text>
<text text-anchor="start" x="330.5" y="-61.3" font-family="Times,serif" font-size="14.00">cancelled : boolean</text>
<polyline fill="none" stroke="black" points="322.5,-53.5 525.5,-53.5"/>
<text text-anchor="start" x="330.5" y="-38.3" font-family="Times,serif" font-size="14.00">Primary key: transaction_id</text>
<text text-anchor="start" x="330.5" y="-23.3" font-family="Times,serif" font-size="14.00">Foreign key (products): product</text>
<text text-anchor="start" x="330.5" y="-8.3" font-family="Times,serif" font-size="14.00">Foreign key (sessions): session_id</text>
</g>
<!-- products&#45;&gt;transactions -->
<g id="edge2" class="edge">
<title>products&#45;&gt;transactions</title>
<path fill="none" stroke="black" d="M700.67,-256.65C685.56,-246.48 669.27,-235.7 654,-226 615.47,-201.51 572.68,-175.59 534.56,-152.94"/>
<polygon fill="none" stroke="black" points="527.71,-144.8 534.52,-152.92 524.13,-150.82 527.71,-144.8"/>
<text text-anchor="middle" x="746" y="-196.8" font-family="Times,serif" font-size="14.00"> &#160;&#160;transactions.product &gt; products.product_id</text>
</g>
<!-- sessions&#45;&gt;transactions -->
<g id="edge3" class="edge">
<title>sessions&#45;&gt;transactions</title>
<path fill="none" stroke="black" d="M175.93,-235.83C181,-232.47 186.05,-229.17 191,-226 230.52,-200.67 274.7,-174.16 313.87,-151.25"/>
<polygon fill="none" stroke="black" points="324,-149.4 313.6,-151.41 320.47,-143.35 324,-149.4"/>
<text text-anchor="middle" x="370" y="-196.8" font-family="Times,serif" font-size="14.00"> &#160;&#160;transactions.session_id &gt; sessions.session_id</text>
</g>
</g>
</svg>
